<?xml version="1.0" encoding="UTF-8" standalone="no"?>
<svg
   xmlns:dc="http://purl.org/dc/elements/1.1/"
   xmlns:cc="http://creativecommons.org/ns#"
   xmlns:rdf="http://www.w3.org/1999/02/22-rdf-syntax-ns#"
   xmlns:svg="http://www.w3.org/2000/svg"
   xmlns="http://www.w3.org/2000/svg"
   viewBox="0 0 1000 666.66669"
   height="666.66669"
   width="1000"
   xml:space="preserve"
   id="svg2"
   version="1.1"><metadata
     id="metadata8"><rdf:RDF><cc:Work
         rdf:about=""><dc:format>image/svg+xml</dc:format><dc:type
           rdf:resource="http://purl.org/dc/dcmitype/StillImage" /></cc:Work></rdf:RDF></metadata><defs
     id="defs6"><clipPath
       id="clipPath38"
       clipPathUnits="userSpaceOnUse"><path
         id="path36"
         d="m 4308.6,1428.73 -167.03,-146.16 -196.9,138.58 c 0,0 67.02,22.47 181.93,-8.12 l 117.6,98.82 z" /></clipPath><linearGradient
       id="linearGradient44"
       spreadMethod="pad"
       gradientTransform="matrix(232.864,-170.958,-170.958,-232.864,4018.75,1522.06)"
       gradientUnits="userSpaceOnUse"
       y2="0"
       x2="1"
       y1="0"
       x1="0"><stop
         id="stop40"
         offset="0"
         style="stop-opacity:1;stop-color:#30343f" /><stop
         id="stop42"
         offset="1"
         style="stop-opacity:1;stop-color:#192132" /></linearGradient><clipPath
       id="clipPath56"
       clipPathUnits="userSpaceOnUse"><path
         id="path54"
         d="m 4700.31,1503.33 -48.14,-216.66 -240.73,-4.81 c 0,0 40.72,57.78 151.46,101.11 l 36.31,149.25 z" /></clipPath><linearGradient
       id="linearGradient62"
       spreadMethod="pad"
       gradientTransform="matrix(288.88,0,0,-288.88,4411.43,1407.04)"
       gradientUnits="userSpaceOnUse"
       y2="0"
       x2="1"
       y1="0"
       x1="0"><stop
         id="stop58"
         offset="0"
         style="stop-opacity:1;stop-color:#30343f" /><stop
         id="stop60"
         offset="1"
         style="stop-opacity:1;stop-color:#192132" /></linearGradient><clipPath
       id="clipPath78"
       clipPathUnits="userSpaceOnUse"><path
         id="path76"
         d="m 6048.54,2738.78 c 0.16,-0.15 -2.44,11.86 18.05,31.15 67.77,63.8 -4.71,188.6 -78.55,210.33 -37.78,11.12 -61.93,-0.6 -75.48,36.94 0.98,-2.69 -15.27,-9.58 -16.88,-10.94 -8.85,-7.5 -13.07,-12.78 -13.36,-25.17 -1.25,-54.54 47.56,-105.32 84.5,-139.67 16.6,-15.45 -24.26,-4.79 -40.75,-7.94 -10.72,-2.05 -38.54,-31.44 -44.52,-35.89 15.49,-19.28 29.28,-1.87 50.17,-11.19 19.3,-8.61 7.07,-33.16 -10.92,-36.07 -27.86,-4.5 -39.2,13.87 -39.2,13.87 -12.76,-6.93 -14.81,-48.3 -24.84,-59.12 13.85,-7.6 94.58,-21.79 113.52,-21.56 40.46,0.48 65.27,22.86 78.26,55.26 z" /></clipPath><linearGradient
       id="linearGradient84"
       spreadMethod="pad"
       gradientTransform="matrix(-205.862,235.955,-235.955,-205.862,6042.72,2719)"
       gradientUnits="userSpaceOnUse"
       y2="0"
       x2="1"
       y1="0"
       x1="0"><stop
         id="stop80"
         offset="0"
         style="stop-opacity:1;stop-color:#30343f" /><stop
         id="stop82"
         offset="1"
         style="stop-opacity:1;stop-color:#192132" /></linearGradient><clipPath
       id="clipPath96"
       clipPathUnits="userSpaceOnUse"><path
         id="path94"
         d="m 4949.1,2013.16 c 0,0 229.04,-85.43 534.3,30.37 305.25,115.78 388.53,656.45 388.53,656.45 l 34.93,-17.71 c 0,0 -34,-596.64 -435.9,-726.3 -307.26,-99.11 -521.86,18.92 -521.86,18.92 z" /></clipPath><linearGradient
       id="linearGradient102"
       spreadMethod="pad"
       gradientTransform="matrix(957.752,0,0,-957.752,4949.1,2308.16)"
       gradientUnits="userSpaceOnUse"
       y2="0"
       x2="1"
       y1="0"
       x1="0"><stop
         id="stop98"
         offset="0"
         style="stop-opacity:1;stop-color:#30343f" /><stop
         id="stop100"
         offset="1"
         style="stop-opacity:1;stop-color:#192132" /></linearGradient></defs><g
     transform="matrix(1.3333333,0,0,-1.3333333,0,666.66667)"
     id="g10"><g
       transform="scale(0.1)"
       id="g12"><path
         id="path14"
         style="fill:#ffffff;fill-opacity:1;fill-rule:nonzero;stroke:none"
         d="M 7500,0 H 0 V 5000 H 7500 V 0" /><g
         transform="scale(10)"
         id="g16"><text
           id="text20"
           style="font-variant:normal;font-weight:900;font-size:34.42950058px;font-family:Roboto;-inkscape-font-specification:Roboto-Black;writing-mode:lr-tb;fill:#f04064;fill-opacity:1;fill-rule:nonzero;stroke:none"
           transform="matrix(1,0,0,-1,285.598,395.08)"><tspan
             id="tspan18"
             y="0"
             x="0 19.280519 41.728554 64.17659 87.932945 110.38097 118.991 138.92851 158.867">ERROR 404</tspan></text>
</g><g
         transform="scale(10)"
         id="g22"><text
           id="text26"
           style="font-variant:normal;font-weight:500;font-size:18.24530029px;font-family:Raleway;-inkscape-font-specification:Raleway-Medium;writing-mode:lr-tb;fill:#4877c5;fill-opacity:1;fill-rule:nonzero;stroke:none"
           transform="matrix(1,0,0,-1,270.208,370.207)"><tspan
             id="tspan24"
             y="0"
             x="0 14.085007 29.611885 46.288197 60.975189 69.240311 86.938126 103.83313 118.13784 126.40249 140.45126 157.74719 175.172 192.86931">PAGE NOT FOUND</tspan></text>
</g><path
         id="path28"
         style="fill:#daa15a;fill-opacity:1;fill-rule:nonzero;stroke:none"
         d="m 5483.48,1986.79 328.61,-710.28 37.03,0.12 -284.15,756.29 -81.49,-46.13" /><path
         id="path30"
         style="fill:#daa15a;fill-opacity:1;fill-rule:nonzero;stroke:none"
         d="m 5143.57,1971.61 -328.61,-695.1 -37.03,0.12 284.15,710.75 81.49,-15.77" /><g
         id="g32"><g
           clip-path="url(#clipPath38)"
           id="g34"><path
             id="path46"
             style="fill:url(#linearGradient44);fill-opacity:1;fill-rule:nonzero;stroke:none"
             d="m 4308.6,1428.73 -167.03,-146.16 -196.9,138.58 c 0,0 67.02,22.47 181.93,-8.12 l 117.6,98.82 64.4,-83.12" /></g></g><path
         id="path48"
         style="fill:#3b61b6;fill-opacity:1;fill-rule:nonzero;stroke:none"
         d="m 5275.47,2234.92 c 0,0 -369.15,-189.21 -499.57,-245.82 -130.42,-56.6 -574.12,-500.93 -574.12,-500.93 0,0 56.8,-115.67 85.21,-95.36 250.53,179.13 481.33,339.4 629.65,395.33 293.69,110.73 375.55,134.81 450.77,221.99 0,0 -44.12,104.78 -91.94,224.79" /><g
         id="g50"><g
           clip-path="url(#clipPath56)"
           id="g52"><path
             id="path64"
             style="fill:url(#linearGradient62);fill-opacity:1;fill-rule:nonzero;stroke:none"
             d="m 4700.31,1503.33 -48.14,-216.66 -240.73,-4.81 c 0,0 40.72,57.78 151.46,101.11 l 36.31,149.25 101.1,-28.89" /></g></g><path
         id="path66"
         style="fill:#4877c5;fill-opacity:1;fill-rule:nonzero;stroke:none"
         d="m 5284.42,2282.97 c 0,0 -343.38,-37.04 -468.55,-104.44 -125.19,-67.42 -224.83,-685.56 -224.83,-685.56 0,0 97.23,-52.78 109.27,-20 97.1,264.41 204.83,471.5 204.83,471.5 123.38,22.54 409.15,-116.53 615.69,86.92 0,0 -178.62,136.03 -236.41,251.58" /><path
         id="path68"
         style="fill:#fab9a5;fill-opacity:1;fill-rule:nonzero;stroke:none"
         d="m 5876.12,2700.35 c 0,0 -24.79,-41.05 -40.43,-92.47 l -141.24,13.04 c 0,0 72.93,110.49 67.35,177.5 l 114.32,-98.07" /><path
         id="path70"
         style="fill:#fab9a5;fill-opacity:1;fill-rule:nonzero;stroke:none"
         d="m 5845.75,2928.63 c -8.02,2.13 -38.2,10.44 -44.3,7.95 -8.48,-3.45 1.37,-14.56 -4.59,-21.34 -9.65,-10.98 -28.97,-11.21 -41.42,-17.88 -15.09,-8.08 -26.59,-18.7 -33.49,-30.83 -11.5,-20.21 30.38,-65.32 36.95,-99.13 13.71,-70.72 103.1,-81.18 175.73,-59.53 25.97,7.74 49.84,31.09 64,53.74 16.64,26.62 7.26,71.11 -6.68,97.62 -8.36,15.9 -24.92,29.6 -39.37,39.57 -13.1,9.04 -16.72,46.59 -32.49,49.25 0,0 -56.28,-24.21 -74.34,-19.42" /><g
         id="g72"><g
           clip-path="url(#clipPath78)"
           id="g74"><path
             id="path86"
             style="fill:url(#linearGradient84);fill-opacity:1;fill-rule:nonzero;stroke:none"
             d="m 6048.54,2738.78 c 0.16,-0.15 -2.44,11.86 18.05,31.15 67.77,63.8 -4.71,188.6 -78.55,210.33 -37.78,11.12 -61.93,-0.6 -75.48,36.94 0.98,-2.69 -15.27,-9.58 -16.88,-10.94 -8.85,-7.5 -13.07,-12.78 -13.36,-25.17 -1.25,-54.54 47.56,-105.32 84.5,-139.67 16.6,-15.45 -24.26,-4.79 -40.75,-7.94 -10.72,-2.05 -38.54,-31.44 -44.52,-35.89 15.49,-19.28 29.28,-1.87 50.17,-11.19 19.3,-8.61 7.07,-33.16 -10.92,-36.07 -27.86,-4.5 -39.2,13.87 -39.2,13.87 -12.76,-6.93 -14.81,-48.3 -24.84,-59.12 13.85,-7.6 94.58,-21.79 113.52,-21.56 40.46,0.48 65.27,22.86 78.26,55.26" /></g></g><path
         id="path88"
         style="fill:#f04064;fill-opacity:1;fill-rule:nonzero;stroke:none"
         d="m 5871.55,2678.38 c 29.61,-330.3 -350.72,-646.99 -350.72,-646.99 0,0 -248.34,-9.35 -236.41,251.58 0,0 19.33,47.45 173.07,186.78 102.72,93.08 174.87,232 247.15,229.23 197.4,-7.55 166.91,-20.6 166.91,-20.6" /><g
         id="g90"><g
           clip-path="url(#clipPath96)"
           id="g92"><path
             id="path104"
             style="fill:url(#linearGradient102);fill-opacity:1;fill-rule:nonzero;stroke:none"
             d="m 4949.1,2013.16 c 0,0 229.04,-85.43 534.3,30.37 305.25,115.78 388.53,656.45 388.53,656.45 l 34.93,-17.71 c 0,0 -34,-596.64 -435.9,-726.3 -307.26,-99.11 -521.86,18.92 -521.86,18.92 v 38.27" /></g></g><path
         id="path106"
         style="fill:#f7ce91;fill-opacity:1;fill-rule:nonzero;stroke:none"
         d="m 5834.8,2348.43 c 0,0 36.58,-126.73 38.61,-189.9 2.04,-63.17 -24.96,-277.62 -24.96,-277.62 l 58.17,-7.36 c 0,0 51.7,255.6 52.92,339.02 1.2,83.41 -46.89,218.55 -46.89,218.55 l -77.85,-82.69" /><path
         id="path108"
         style="fill:#f04064;fill-opacity:1;fill-rule:nonzero;stroke:none"
         d="m 5831.17,2343.08 c 42.24,-184.55 24.73,-431.89 24.73,-431.89 l 63.13,-4.02 c 69.21,144.77 62.73,465.55 26.14,600.51 -21.51,79.29 -34.17,159.24 -87.83,171.57 -33.54,7.71 -102.54,-16.84 -111.77,-49.99 -20.06,-71.94 64.88,-195.66 85.6,-286.18" /><path
         id="path110"
         style="fill:#f7ce91;fill-opacity:1;fill-rule:nonzero;stroke:none"
         d="m 5822.42,1849.01 c -13.93,-26.53 -20.24,-45.97 -12.04,-52.67 5.66,-4.62 14.78,21.14 25.78,30.33 3.23,-10.73 3.66,-30.78 -3.2,-47.66 -7.77,-19.13 -7.09,-35.48 7.44,-36.89 14.53,-1.41 38.17,-0.45 43.44,11.6 5.24,12.04 17.2,62.29 23.66,79 6.46,16.72 -2.11,35.93 0.35,45.5 2.46,9.58 -42.93,25.61 -42.93,25.61 -2.49,-3.85 -16.47,-22.92 -16.47,-22.92 0,0 -11.79,-14.11 -15.84,-16.68 -4.07,-2.57 -10.19,-15.22 -10.19,-15.22" /><path
         id="path112"
         style="fill:none;stroke:#d7dde4;stroke-width:2.5;stroke-linecap:butt;stroke-linejoin:miter;stroke-miterlimit:10;stroke-dasharray:none;stroke-opacity:1"
         d="M 5477.82,4442.89 V 4002.91" /><path
         id="path114"
         style="fill:#fab30b;fill-opacity:1;fill-rule:nonzero;stroke:none"
         d="m 5555.74,3833.69 c -3.28,-42.49 -40.39,-74.28 -82.88,-71 -42.49,3.28 -74.29,40.38 -71,82.88 3.28,42.49 40.39,74.28 82.88,71 42.49,-3.28 74.28,-40.38 71,-82.88" /><path
         id="path116"
         style="fill:#d6deee;fill-opacity:1;fill-rule:nonzero;stroke:none"
         d="m 5842.19,3806.87 h -728.73 l 318.92,232.08 h 90.88 l 318.93,-232.08" /><path
         id="path118"
         style="fill:none;stroke:#d7dde4;stroke-width:2.5;stroke-linecap:butt;stroke-linejoin:miter;stroke-miterlimit:10;stroke-dasharray:none;stroke-opacity:1"
         d="M 2047.16,4442.89 V 4002.91" /><path
         id="path120"
         style="fill:#fab30b;fill-opacity:1;fill-rule:nonzero;stroke:none"
         d="m 2125.08,3833.69 c -3.28,-42.49 -40.38,-74.28 -82.88,-71 -42.49,3.28 -74.28,40.38 -71,82.88 3.28,42.49 40.38,74.28 82.88,71 42.49,-3.28 74.28,-40.38 71,-82.88" /><path
         id="path122"
         style="fill:#d6deee;fill-opacity:1;fill-rule:nonzero;stroke:none"
         d="m 2411.53,3806.87 h -728.74 l 318.93,232.08 h 90.88 l 318.93,-232.08" /><path
         id="path124"
         style="fill:none;stroke:#a5acb9;stroke-width:5;stroke-linecap:butt;stroke-linejoin:miter;stroke-miterlimit:10;stroke-dasharray:none;stroke-opacity:1"
         d="M 1258.41,1279.99 H 6241.59" /><path
         id="path126"
         style="fill:#5ec575;fill-opacity:1;fill-rule:nonzero;stroke:none"
         d="m 3069.88,2810.88 c 0,0 15.37,37.63 43.3,71.17 27.93,33.53 69.57,89.36 69.57,89.36 0,0 -20.3,-39.74 -47.88,-84.64 -27.57,-44.9 -64.99,-75.89 -64.99,-75.89" /><path
         id="path128"
         style="fill:#5ec575;fill-opacity:1;fill-rule:nonzero;stroke:none"
         d="m 3098.76,2876.31 c 0,0 30.92,24.3 49.49,75.72 18.57,51.43 35.49,90.58 35.49,90.58 0,0 -40.11,-57.38 -57.35,-97.15 -17.24,-39.76 -27.63,-69.15 -27.63,-69.15" /><path
         id="path130"
         style="fill:#5ec575;fill-opacity:1;fill-rule:nonzero;stroke:none"
         d="m 3071.96,2818.16 c 0,0 16.17,58.82 19.35,105.77 3.18,46.95 2.82,76.44 2.82,76.44 0,0 -20.4,-85.19 -26.55,-121.37 -6.15,-36.18 4.38,-60.84 4.38,-60.84" /><path
         id="path132"
         style="fill:#5ec575;fill-opacity:1;fill-rule:nonzero;stroke:none"
         d="m 3058.12,2779.11 c 0,0 5.17,60.58 -11.86,114.77 -17.03,54.2 -17.95,88.6 -17.95,88.6 0,0 -8.18,-56.74 1.53,-105.65 9.7,-48.91 28.28,-97.72 28.28,-97.72" /><path
         id="path134"
         style="fill:#5ec575;fill-opacity:1;fill-rule:nonzero;stroke:none"
         d="m 3063.13,2792.49 c 0,0 43.03,36.75 64.78,45.4 21.75,8.64 52.04,33.83 52.04,33.83 0,0 -37.39,-47.86 -58.26,-57.34 -20.87,-9.49 -58.56,-21.89 -58.56,-21.89" /><path
         id="path136"
         style="fill:#5ec575;fill-opacity:1;fill-rule:nonzero;stroke:none"
         d="m 3048.28,2741.07 c 0,0 4.17,33.08 -15.06,79.96 -19.23,46.87 -23.68,70.05 -23.68,70.05 0,0 -1.14,-63.64 11.51,-87.52 12.66,-23.88 27.23,-62.49 27.23,-62.49" /><path
         id="path138"
         style="fill:#5ec575;fill-opacity:1;fill-rule:nonzero;stroke:none"
         d="m 3052.3,2765.16 c 0,0 24.73,16.51 48.57,19.85 23.84,3.35 30.2,6.59 30.2,6.59 0,0 -12.06,-22.03 -41.46,-25.75 -29.4,-3.71 -37.31,-0.69 -37.31,-0.69" /><path
         id="path140"
         style="fill:#5ec575;fill-opacity:1;fill-rule:nonzero;stroke:none"
         d="m 3036.12,2709.5 c 5.34,20.8 12.23,52.96 19.32,74.44 15.65,47.42 52.89,108.52 52.89,108.52 -22.74,-50.44 -39.35,-78.81 -50.79,-122.31 -4.53,-17.25 -12.36,-41.18 -16.6,-56.81 -0.69,-4.29 -4.12,-7.89 -4.82,-3.84" /><path
         id="path142"
         style="fill:#86d391;fill-opacity:1;fill-rule:nonzero;stroke:none"
         d="m 3047.1,2793.92 c 0,0 -2.43,43.15 -18.91,86.52 -16.47,43.37 -39.02,113.89 -39.02,113.89 0,0 6.67,-46.97 18.85,-101.64 12.19,-54.67 39.08,-98.77 39.08,-98.77" /><path
         id="path144"
         style="fill:#86d391;fill-opacity:1;fill-rule:nonzero;stroke:none"
         d="m 3040.71,2869.68 c 0,0 -22.68,35.12 -23.56,93.24 -0.87,58.11 -4.34,103.33 -4.34,103.33 0,0 20.48,-71.56 24.05,-117.49 3.57,-45.94 3.85,-79.08 3.85,-79.08" /><path
         id="path146"
         style="fill:#86d391;fill-opacity:1;fill-rule:nonzero;stroke:none"
         d="m 3047.53,2801.96 c 0,0 4.09,64.72 17.14,113.02 13.05,48.29 23.6,77.8 23.6,77.8 0,0 -8.96,-92.68 -15.29,-131.18 -6.33,-38.49 -25.45,-59.64 -25.45,-59.64" /><path
         id="path148"
         style="fill:#86d391;fill-opacity:1;fill-rule:nonzero;stroke:none"
         d="m 3047.94,2757.92 c 0,0 15.75,62.69 51.62,111.27 35.86,48.58 48.69,82.84 48.69,82.84 0,0 -11.41,-59.86 -38.08,-105.66 -26.68,-45.81 -62.23,-88.45 -62.23,-88.45" /><path
         id="path150"
         style="fill:#86d391;fill-opacity:1;fill-rule:nonzero;stroke:none"
         d="m 3047.52,2773.11 c 0,0 -30.54,51.82 -49.41,68.03 -18.87,16.22 -40.6,52.01 -40.6,52.01 0,0 21.03,-61.03 38.72,-77.79 17.7,-16.76 51.29,-42.25 51.29,-42.25" /><path
         id="path152"
         style="fill:#86d391;fill-opacity:1;fill-rule:nonzero;stroke:none"
         d="m 3044.66,2716.28 c 0,0 7.26,34.7 42.8,75.16 35.54,40.46 48.03,62.23 48.03,62.23 0,0 -20.86,-64.37 -41.84,-83.99 -20.98,-19.63 -48.99,-53.4 -48.99,-53.4" /><path
         id="path154"
         style="fill:#86d391;fill-opacity:1;fill-rule:nonzero;stroke:none"
         d="m 3048.96,2741.89 c 0,0 -19.15,25.14 -41.96,36.76 -22.81,11.61 -28.07,17.06 -28.07,17.06 0,0 4.49,-26.31 32.76,-40.22 28.27,-13.9 37.27,-13.6 37.27,-13.6" /><path
         id="path156"
         style="fill:#5ec575;fill-opacity:1;fill-rule:nonzero;stroke:none"
         d="m 3045.96,2680.35 c 1.83,22.76 6.03,57.45 6.33,81.5 0.68,53.09 -15.62,127.38 -15.62,127.38 5.41,-58.58 12.29,-92.83 8.74,-140.52 -1.41,-18.9 -1.81,-45.66 -2.96,-62.85 -0.79,-4.54 1.41,-9.34 3.51,-5.51" /><path
         id="path158"
         style="fill:#5ec575;fill-opacity:1;fill-rule:nonzero;stroke:none"
         d="m 3014.38,2784.98 c 0,0 -15.37,37.64 -43.31,71.17 -27.93,33.53 -69.57,89.36 -69.57,89.36 0,0 20.32,-39.74 47.88,-84.64 27.58,-44.9 65,-75.89 65,-75.89" /><path
         id="path160"
         style="fill:#5ec575;fill-opacity:1;fill-rule:nonzero;stroke:none"
         d="m 2985.5,2850.41 c 0,0 -30.92,24.3 -49.49,75.72 -18.57,51.43 -35.49,90.58 -35.49,90.58 0,0 40.11,-57.37 57.35,-97.14 17.24,-39.77 27.63,-69.16 27.63,-69.16" /><path
         id="path162"
         style="fill:#5ec575;fill-opacity:1;fill-rule:nonzero;stroke:none"
         d="m 3012.3,2792.26 c 0,0 -16.18,58.82 -19.35,105.77 -3.18,46.96 -2.82,76.44 -2.82,76.44 0,0 20.4,-85.19 26.55,-121.37 6.15,-36.18 -4.38,-60.84 -4.38,-60.84" /><path
         id="path164"
         style="fill:#5ec575;fill-opacity:1;fill-rule:nonzero;stroke:none"
         d="m 3026.15,2753.21 c 0,0 -5.18,60.58 11.85,114.77 17.02,54.2 17.95,88.6 17.95,88.6 0,0 8.18,-56.74 -1.53,-105.65 -9.7,-48.91 -28.27,-97.72 -28.27,-97.72" /><path
         id="path166"
         style="fill:#5ec575;fill-opacity:1;fill-rule:nonzero;stroke:none"
         d="m 3021.13,2766.59 c 0,0 -43.03,36.75 -64.78,45.4 -21.75,8.64 -52.04,33.84 -52.04,33.84 0,0 37.39,-47.87 58.26,-57.35 20.87,-9.49 58.56,-21.89 58.56,-21.89" /><path
         id="path168"
         style="fill:#5ec575;fill-opacity:1;fill-rule:nonzero;stroke:none"
         d="m 3035.98,2715.18 c 0,0 -4.17,33.08 15.06,79.95 19.23,46.87 23.68,70.05 23.68,70.05 0,0 1.14,-63.64 -11.51,-87.52 -12.65,-23.88 -27.23,-62.48 -27.23,-62.48" /><path
         id="path170"
         style="fill:#5ec575;fill-opacity:1;fill-rule:nonzero;stroke:none"
         d="m 3031.96,2739.27 c 0,0 -24.73,16.5 -48.57,19.85 -23.84,3.34 -30.2,6.58 -30.2,6.58 0,0 12.05,-22.03 41.46,-25.74 29.4,-3.72 37.31,-0.69 37.31,-0.69" /><path
         id="path172"
         style="fill:#5ec575;fill-opacity:1;fill-rule:nonzero;stroke:none"
         d="m 3048.13,2683.61 c -5.34,20.79 -12.22,52.95 -19.31,74.43 -15.65,47.43 -52.89,108.52 -52.89,108.52 22.74,-50.44 39.35,-78.81 50.79,-122.31 4.53,-17.24 12.36,-41.17 16.6,-56.81 0.69,-4.29 4.12,-7.88 4.81,-3.83" /><path
         id="path174"
         style="fill:#d6deee;fill-opacity:1;fill-rule:nonzero;stroke:none"
         d="m 3102.78,2538.37 h -116.67 l -36.05,205.5 h 192.97 l -40.25,-205.5" /><path
         id="path176"
         style="fill:#daa15a;fill-opacity:1;fill-rule:nonzero;stroke:none"
         d="m 4435.72,2481.91 192.41,-1203.05 37.04,0.11 -152.24,1203.19 -77.21,-0.25" /><path
         id="path178"
         style="fill:#daa15a;fill-opacity:1;fill-rule:nonzero;stroke:none"
         d="m 3109.34,2481.36 -250.59,-1204.25 -49.9,-0.12 196.46,1204.12 104.03,0.25" /><path
         id="path180"
         style="fill:#daa15a;fill-opacity:1;fill-rule:nonzero;stroke:none"
         d="M 4785.13,2459.58 H 2714.87 v 92.65 h 2070.26 v -92.65" /><path
         id="path182"
         style="fill:#f1b264;fill-opacity:1;fill-rule:nonzero;stroke:none"
         d="M 4884.38,2490.73 H 2615.62 v 61.5 h 2268.76 v -61.5" /><path
         id="path184"
         style="fill:#a5acb9;fill-opacity:1;fill-rule:nonzero;stroke:none"
         d="m 4249.93,2584.66 h -80.52 l -80.52,513.77 h 61.22 l 99.82,-513.77" /><path
         id="path186"
         style="fill:#d6deee;fill-opacity:1;fill-rule:nonzero;stroke:none"
         d="m 4226.82,2584.66 h -314.28 l -80.52,513.77 h 314.28 l 80.52,-513.77" /><path
         id="path188"
         style="fill:#d6deee;fill-opacity:1;fill-rule:nonzero;stroke:none"
         d="m 4249.93,2596.31 h -341.61 v -38.33 h 341.61 v 38.33" /><path
         id="path190"
         style="fill:#a5acb9;fill-opacity:1;fill-rule:nonzero;stroke:none"
         d="m 4680.66,2596.31 h -430.73 v -38.33 h 430.73 v 38.33" /><path
         id="path192"
         style="fill:#a5acb9;fill-opacity:1;fill-rule:nonzero;stroke:none"
         d="m 4054.22,2816.55 c 9.09,-39.32 2.68,-81.8 -14.31,-94.87 -16.99,-13.07 -38.13,8.22 -47.23,47.55 -9.1,39.33 -2.7,81.81 14.29,94.88 16.99,13.06 38.15,-8.23 47.25,-47.56" /><path
         id="path194"
         style="fill:#a5acb9;fill-opacity:1;fill-rule:nonzero;stroke:none"
         d="m 3565.34,2559.78 h -44.58 c -18.42,0 -34.08,13.42 -36.91,31.62 l -17.81,114.71 h 154.02 l -17.81,-114.71 c -2.82,-18.2 -18.49,-31.62 -36.91,-31.62" /><path
         id="path196"
         style="fill:#a5acb9;fill-opacity:1;fill-rule:nonzero;stroke:none"
         d="m 3604.97,2598.27 c 28.12,-0.9 37,20.68 40.34,39.18 v 0 c 2.21,12.25 0.46,21.89 -5.19,28.63 -5.42,6.5 -14.57,10.23 -25.09,10.23 -16.62,0 -30.15,-17.99 -30.15,-40.11 0,-18.61 15.12,-33.51 20.09,-37.93 z m 1.68,-14.05 c -1.63,0 -3.26,0.06 -4.93,0.19 l -2.09,0.16 -1.66,1.28 c -1.11,0.84 -27.12,21.21 -27.12,50.35 0,29.85 19.82,54.14 44.18,54.14 14.68,0 27.76,-5.56 35.87,-15.25 5.79,-6.93 11.92,-19.53 8.22,-40.13 v 0 c -5.87,-32.49 -24.88,-50.74 -52.47,-50.74" /><path
         id="path198"
         style="fill:#d6deee;fill-opacity:1;fill-rule:nonzero;stroke:none"
         d="m 3450.7,2549.7 h 195.2 l 31.13,34.47 h -257.46 l 31.13,-34.47" /><path
         id="path200"
         style="fill:#b6becc;fill-opacity:1;fill-rule:nonzero;stroke:none"
         d="m 2416.33,1279.25 h -934.04 v 2020.36 h 934.04 V 1279.25" /><path
         id="path202"
         style="fill:#d6deee;fill-opacity:1;fill-rule:nonzero;stroke:none"
         d="m 2308.81,2999.49 h -718.99 v 211.85 h 718.99 v -211.85" /><path
         id="path204"
         style="fill:#ffffff;fill-opacity:1;fill-rule:nonzero;stroke:none"
         d="m 2035.3,3079.74 h -171.97 c -4.42,0 -8,3.58 -8,8 v 35.36 c 0,4.41 3.58,7.99 8,7.99 h 171.97 c 4.42,0 8,-3.58 8,-7.99 v -35.36 c 0,-4.42 -3.58,-8 -8,-8" /><path
         id="path206"
         style="fill:#d6deee;fill-opacity:1;fill-rule:nonzero;stroke:none"
         d="m 2308.81,2729.9 h -718.99 v 211.84 h 718.99 V 2729.9" /><path
         id="path208"
         style="fill:#ffffff;fill-opacity:1;fill-rule:nonzero;stroke:none"
         d="m 2035.3,2810.14 h -171.97 c -4.42,0 -8,3.58 -8,8 v 35.36 c 0,4.42 3.58,8 8,8 h 171.97 c 4.42,0 8,-3.58 8,-8 v -35.36 c 0,-4.42 -3.58,-8 -8,-8" /><path
         id="path210"
         style="fill:#d6deee;fill-opacity:1;fill-rule:nonzero;stroke:none"
         d="m 2308.81,2460.3 h -718.99 v 211.84 h 718.99 V 2460.3" /><path
         id="path212"
         style="fill:#ffffff;fill-opacity:1;fill-rule:nonzero;stroke:none"
         d="m 2035.3,2540.55 h -171.97 c -4.42,0 -8,3.58 -8,8 v 35.35 c 0,4.42 3.58,8 8,8 h 171.97 c 4.42,0 8,-3.58 8,-8 v -35.35 c 0,-4.42 -3.58,-8 -8,-8" /><path
         id="path214"
         style="fill:#d6deee;fill-opacity:1;fill-rule:nonzero;stroke:none"
         d="m 2308.81,1361.1 h -718.99 v 1038.41 h 718.99 V 1361.1" /><path
         id="path216"
         style="fill:#ffffff;fill-opacity:1;fill-rule:nonzero;stroke:none"
         d="m 2035.3,2267.92 h -171.97 c -4.42,0 -8,3.57 -8,8 v 35.35 c 0,4.42 3.58,8 8,8 h 171.97 c 4.42,0 8,-3.58 8,-8 v -35.35 c 0,-4.43 -3.58,-8 -8,-8" /><path
         id="path218"
         style="fill:#5ec575;fill-opacity:1;fill-rule:nonzero;stroke:none"
         d="M 4333.56,754.961 H 3166.44 c -29.01,0 -52.53,23.519 -52.53,52.527 V 971.73 c 0,29.01 23.52,52.53 52.53,52.53 h 1167.12 c 29.01,0 52.53,-23.52 52.53,-52.518 V 807.488 c 0,-29.008 -23.52,-52.527 -52.53,-52.527" /><g
         transform="scale(10)"
         id="g220"><text
           id="text224"
           style="font-variant:normal;font-weight:500;font-size:12.40690041px;font-family:Roboto;-inkscape-font-specification:Roboto-Medium;writing-mode:lr-tb;fill:#ffffff;fill-opacity:1;fill-rule:nonzero;stroke:none"
           transform="matrix(0.990102,0,0,-1,321.806,85.4012)"><tspan
             id="tspan222"
             y="0"
             x="0 7.8287539 14.540887 21.033173 27.509575 30.598892 34.54306 41.602589 44.691906 53.500805 60.574535 71.368538 78.031044 85.012505 91.725426 98.758904">Back to Homepage</tspan></text>
</g><path
         id="path226"
         style="fill:#272525;fill-opacity:1;fill-rule:nonzero;stroke:none"
         d="m 3851.04,358.859 c -4.32,-4.437 -8.03,-9.32 -11.08,-14.527 l -4.66,2.398 c -0.66,2.981 -3.48,5.032 -6.58,4.672 -3.31,-0.39 -5.68,-3.39 -5.29,-6.703 0.39,-3.308 3.39,-5.679 6.7,-5.301 0.65,0.082 1.27,0.274 1.83,0.532 l 4.51,-2.34 c -2.51,-5.539 -4.32,-11.391 -5.39,-17.438 l 7.46,-1.312 c 2.31,13.051 8.5,25.062 17.92,34.719 l -5.42,5.3" /><path
         id="path228"
         style="fill:#272525;fill-opacity:1;fill-rule:nonzero;stroke:none"
         d="m 3905.92,381.879 c -1.71,0 -3.41,-0.059 -5.1,-0.18 l -0.73,6.27 c 1.87,1.48 2.96,3.89 2.65,6.441 -0.45,3.93 -4.02,6.738 -7.95,6.281 -3.93,-0.472 -6.74,-4.019 -6.28,-7.961 0.3,-2.531 1.89,-4.601 4.05,-5.628 l 0.73,-6.243 c -7.14,-1.16 -14.03,-3.32 -20.59,-6.468 l 3.27,-6.832 c 9.33,4.472 19.41,6.742 29.95,6.742 4.96,0 9.93,-0.539 14.74,-1.582 l 1.62,7.41 c -5.36,1.16 -10.85,1.75 -16.36,1.75" /><path
         id="path230"
         style="fill:#272525;fill-opacity:1;fill-rule:nonzero;stroke:none"
         d="m 3971.94,356.402 c 3.31,0.407 5.67,3.407 5.26,6.727 -0.4,3.312 -3.42,5.66 -6.72,5.25 -3.1,-0.379 -5.35,-3.039 -5.3,-6.078 l -4.16,-3.641 c -4.18,4.301 -8.9,8.129 -14.09,11.391 l -4.03,-6.41 c 11.34,-7.153 20.21,-17.262 25.64,-29.25 l 6.9,3.121 c -2.51,5.547 -5.67,10.718 -9.42,15.457 l 4.02,3.5 c 0.6,-0.117 1.25,-0.149 1.9,-0.067" /><path
         id="path232"
         style="fill:#272525;fill-opacity:1;fill-rule:nonzero;stroke:none"
         d="m 3900.44,279.789 c -3.86,-0.23 -7.74,-0.348 -11.57,-0.348 -8.8,0 -17.33,0.61 -24.78,1.789 -3.9,0.629 -8.46,1.551 -12.7,2.918 10.46,-18.597 30.69,-31.25 53.88,-31.25 28.56,0 52.62,19.161 59.5,45.043 -6.82,-4.492 -15.06,-8.25 -24.59,-11.222 -11.79,-3.68 -25.54,-6.078 -39.74,-6.93" /><path
         id="path234"
         style="fill:#272525;fill-opacity:1;fill-rule:nonzero;stroke:none"
         d="m 3931.7,310.641 c -7.5,0 -13.6,6.109 -13.6,13.609 0,7.5 6.1,13.602 13.6,13.602 7.5,0 13.6,-6.102 13.6,-13.602 0,-7.5 -6.1,-13.609 -13.6,-13.609 z m -47.37,-9.082 c -10.21,0 -18.5,8.3 -18.5,18.5 0,10.203 8.29,18.492 18.5,18.492 10.19,0 18.49,-8.289 18.49,-18.492 0,-10.2 -8.3,-18.5 -18.49,-18.5 z m 21.59,65.152 c -33.53,0 -60.79,-26.66 -60.79,-59.43 0,-4.261 0.46,-8.492 1.36,-12.621 6.74,-4.828 27.06,-8.898 53.48,-7.308 28.79,1.738 52.97,9.57 66.72,21.589 -0.05,1.95 -0.21,3.899 -0.45,5.821 -3.8,29.617 -29.74,51.949 -60.32,51.949" /><path
         id="path236"
         style="fill:#272525;fill-opacity:1;fill-rule:nonzero;stroke:none"
         d="m 4065.96,348.039 c -2.95,1.16 -8.06,3.09 -13.83,2.371 -5.51,-0.68 -8.44,-3.398 -8.44,-10.058 v -8.661 h 22.28 v -17.179 h -22.28 v -54.543 h -19.31 v 54.543 h -13.4 v 17.179 h 13.4 v 8.879 c 0,16.801 8.95,27.828 25.68,27.828 6.42,0 11.57,-1.218 15.9,-3.089 v -17.27" /><path
         id="path238"
         style="fill:#272525;fill-opacity:1;fill-rule:nonzero;stroke:none"
         d="m 4112.98,314.719 c -1.77,0.301 -3.58,0.472 -5.27,0.472 -8.95,0 -15.09,-5.48 -15.09,-16.152 v -39.07 h -19.32 v 71.722 h 18.73 v -7.851 c 4.51,6.742 11.4,9.769 20.21,9.769 4.14,0 8.47,-1.277 10.93,-3.371 l -10.19,-15.519" /><path
         id="path240"
         style="fill:#272525;fill-opacity:1;fill-rule:nonzero;stroke:none"
         d="m 4138.51,302.602 h 31.75 c -1.77,9.179 -7.33,14.359 -15.62,14.359 -9.1,0 -14.43,-5.481 -16.13,-14.359 z m 51.14,-6.661 c 0,-2.222 -0.15,-4.89 -0.37,-6.519 h -50.84 c 2.07,-10.363 9.32,-14.871 18.43,-14.871 6.21,0 12.94,2.508 18.13,6.89 l 11.32,-12.453 c -8.14,-7.468 -18.51,-10.867 -30.57,-10.867 -21.98,0 -37.22,14.949 -37.22,37.52 0,22.57 14.8,37.968 36.26,37.968 20.65,0 34.79,-15.32 34.86,-37.668" /><path
         id="path242"
         style="fill:#272525;fill-opacity:1;fill-rule:nonzero;stroke:none"
         d="m 4215.04,302.602 h 31.76 c -1.78,9.179 -7.34,14.359 -15.63,14.359 -9.1,0 -14.43,-5.481 -16.13,-14.359 z m 51.14,-6.661 c 0,-2.222 -0.14,-4.89 -0.37,-6.519 h -50.84 c 2.07,-10.363 9.32,-14.871 18.43,-14.871 6.21,0 12.95,2.508 18.13,6.89 l 11.32,-12.453 c -8.13,-7.468 -18.5,-10.867 -30.56,-10.867 -21.99,0 -37.23,14.949 -37.23,37.52 0,22.57 14.8,37.968 36.26,37.968 20.65,0 34.79,-15.32 34.86,-37.668" /><path
         id="path244"
         style="fill:#272525;fill-opacity:1;fill-rule:nonzero;stroke:none"
         d="m 4292.87,295.859 c 0,-11.32 7.48,-19.757 18.43,-19.757 11.4,0 18.5,8.808 18.5,19.757 0,10.961 -7.1,19.77 -18.5,19.77 -10.95,0 -18.43,-8.438 -18.43,-19.77 z m 56.77,0 c 0,-21.527 -14.95,-37.738 -34.71,-37.738 -9.63,0 -16.43,3.77 -21.09,9.32 v -37.082 h -19.25 v 101.332 h 18.88 v -7.921 c 4.66,5.851 11.54,9.839 21.38,9.839 19.84,0 34.79,-16.211 34.79,-37.75" /><path
         id="path246"
         style="fill:#272525;fill-opacity:1;fill-rule:nonzero;stroke:none"
         d="m 4378.09,259.969 h -19.32 v 71.722 h 19.32 z m 2.58,95.183 c 0,-6.961 -5.4,-12.293 -12.35,-12.293 -6.96,0 -12.29,5.332 -12.29,12.293 0,6.957 5.33,12.438 12.29,12.438 6.95,0 12.35,-5.481 12.35,-12.438" /><path
         id="path248"
         style="fill:#272525;fill-opacity:1;fill-rule:nonzero;stroke:none"
         d="m 4410.32,306.148 27.01,25.543 h 23.7 l -34.8,-33.75 35.01,-37.972 h -23.76 l -27.16,29.011 v -29.011 h -19.31 v 106.582 h 19.31 v -60.403" /><path
         id="path250"
         style="fill:#272525;fill-opacity:1;fill-rule:nonzero;stroke:none"
         d="m 3094.13,279.801 v 32.09 c -3.96,6.148 -12.46,11.418 -21.24,11.418 -14.21,0 -22.71,-11.719 -22.71,-27.387 0,-15.684 8.5,-27.25 22.71,-27.25 8.78,0 17.28,4.976 21.24,11.129 z m 0,-19.18 v 10.539 c -5.28,-7.18 -13.92,-12.301 -23.88,-12.301 -18.46,0 -31.5,14.063 -31.5,37.063 0,22.558 12.9,37.207 31.5,37.207 9.52,0 18.16,-4.688 23.88,-12.457 v 37.648 h 10.98 v -97.699 h -10.98" /><path
         id="path252"
         style="fill:#272525;fill-opacity:1;fill-rule:nonzero;stroke:none"
         d="m 3154.03,324.039 c -15.08,0 -22.56,-12.738 -23.14,-23.578 h 46.43 c -0.14,10.551 -7.17,23.578 -23.29,23.578 z m -34.71,-27.98 c 0,20.511 14.64,37.07 34.86,37.07 21.39,0 33.98,-16.699 33.98,-37.938 v -2.793 h -57.27 c 0.88,-13.328 10.25,-24.457 25.49,-24.457 8.05,0 16.26,3.219 21.82,8.938 l 5.28,-7.18 c -7.03,-7.027 -16.56,-10.84 -28.13,-10.84 -20.95,0 -36.03,15.09 -36.03,37.2" /><path
         id="path254"
         style="fill:#272525;fill-opacity:1;fill-rule:nonzero;stroke:none"
         d="m 3196.07,269.988 5.71,7.91 c 4.69,-5.418 13.63,-10.109 23.29,-10.109 10.84,0 16.7,5.133 16.7,12.16 0,17.141 -43.8,6.59 -43.8,32.813 0,10.988 9.53,20.367 26.37,20.367 12.01,0 20.51,-4.547 26.22,-10.258 l -5.13,-7.621 c -4.24,5.129 -12.01,8.941 -21.09,8.941 -9.67,0 -15.67,-4.832 -15.67,-11.132 0,-15.528 43.79,-5.278 43.79,-32.821 0,-11.859 -9.52,-21.379 -27.83,-21.379 -11.57,0 -21.38,3.512 -28.56,11.129" /><path
         id="path256"
         style="fill:#272525;fill-opacity:1;fill-rule:nonzero;stroke:none"
         d="m 3266.67,260.621 v 70.75 h 10.99 v -70.75 z m -1.9,88.18 c 0,4.097 3.37,7.469 7.32,7.469 4.11,0 7.47,-3.372 7.47,-7.469 0,-4.102 -3.36,-7.332 -7.47,-7.332 -3.95,0 -7.32,3.23 -7.32,7.332" /><path
         id="path258"
         style="fill:#272525;fill-opacity:1;fill-rule:nonzero;stroke:none"
         d="m 3347.08,280.98 v 30.911 c -3.8,6.148 -12.3,11.418 -21.08,11.418 -14.22,0 -22.71,-11.278 -22.71,-26.95 0,-15.527 8.49,-26.961 22.71,-26.961 8.78,0 17.28,5.422 21.08,11.582 z m -51.26,-38.531 5.57,8.199 c 5.86,-7.027 12.89,-9.656 22.99,-9.656 11.72,0 22.7,5.707 22.7,21.238 v 10.102 c -5.12,-7.172 -13.76,-12.59 -23.73,-12.59 -18.45,0 -31.48,13.77 -31.48,36.617 0,22.7 12.88,36.77 31.48,36.77 9.53,0 18.03,-4.688 23.73,-12.457 v 10.699 h 10.99 v -68.699 c 0,-23.442 -16.4,-30.774 -33.69,-30.774 -12.01,0 -20.21,2.352 -28.56,10.551" /><path
         id="path260"
         style="fill:#272525;fill-opacity:1;fill-rule:nonzero;stroke:none"
         d="m 3424.13,260.621 v 46.277 c 0,12.461 -6.29,16.411 -15.81,16.411 -8.65,0 -16.86,-5.27 -20.95,-10.989 v -51.699 h -10.99 v 70.75 h 10.99 v -10.262 c 4.98,5.86 14.64,12.02 25.19,12.02 14.79,0 22.56,-7.481 22.56,-22.859 v -49.649 h -10.99" /><path
         id="path262"
         style="fill:#272525;fill-opacity:1;fill-rule:nonzero;stroke:none"
         d="m 3484.04,324.039 c -15.08,0 -22.56,-12.738 -23.14,-23.578 h 46.43 c -0.15,10.551 -7.18,23.578 -23.29,23.578 z m -34.71,-27.98 c 0,20.511 14.64,37.07 34.86,37.07 21.38,0 33.98,-16.699 33.98,-37.938 v -2.793 h -57.27 c 0.88,-13.328 10.25,-24.457 25.49,-24.457 8.05,0 16.25,3.219 21.82,8.938 l 5.28,-7.18 c -7.03,-7.027 -16.56,-10.84 -28.13,-10.84 -20.95,0 -36.03,15.09 -36.03,37.2" /><path
         id="path264"
         style="fill:#272525;fill-opacity:1;fill-rule:nonzero;stroke:none"
         d="m 3583.5,279.801 v 32.09 c -3.96,6.148 -12.45,11.418 -21.24,11.418 -14.21,0 -22.7,-11.719 -22.7,-27.387 0,-15.684 8.49,-27.25 22.7,-27.25 8.79,0 17.28,4.976 21.24,11.129 z m 0,-19.18 v 10.539 c -5.27,-7.18 -13.92,-12.301 -23.88,-12.301 -18.45,0 -31.49,14.063 -31.49,37.063 0,22.558 12.89,37.207 31.49,37.207 9.52,0 18.17,-4.688 23.88,-12.457 v 37.648 h 10.99 v -97.699 h -10.99" /><path
         id="path266"
         style="fill:#272525;fill-opacity:1;fill-rule:nonzero;stroke:none"
         d="m 3679,268.672 c 14.35,0 22.85,11.566 22.85,27.25 0,15.668 -8.5,27.387 -22.85,27.387 -8.64,0 -17.29,-5.27 -21.09,-11.418 v -32.09 c 3.8,-6.153 12.45,-11.129 21.09,-11.129 z m -32.08,-8.051 v 97.699 h 10.99 v -37.648 c 5.71,7.769 14.2,12.457 23.87,12.457 18.46,0 31.5,-14.649 31.5,-37.207 0,-23 -13.04,-37.063 -31.5,-37.063 -9.96,0 -18.6,5.121 -23.87,12.301 v -10.539 h -10.99" /><path
         id="path268"
         style="fill:#272525;fill-opacity:1;fill-rule:nonzero;stroke:none"
         d="m 3725.28,242.891 c 1.61,-0.731 4.26,-1.172 6.01,-1.172 4.83,0 8.06,1.613 10.55,7.472 l 4.69,10.688 -29.6,71.492 h 11.87 l 23.58,-58.012 23.44,58.012 h 12.01 l -35.45,-85.109 c -4.25,-10.25 -11.42,-14.211 -20.8,-14.364 -2.34,0 -6,0.442 -8.05,1.032 l 1.75,9.961" /></g></g></svg>